<svg width="583" height="203" viewBox="0 0 583 203" fill="none" xmlns="http://www.w3.org/2000/svg">
<path d="M0 100C0 44.7715 44.7715 0 100 0H583V103C583 158.228 538.228 203 483 203H0V100Z" fill="#F5F7FA"/>
<ellipse cx="99.5" cy="111" rx="43.5" ry="41" fill="#00A01D" fill-opacity="0.2"/>
<path d="M105 114.583C99.66 114.583 89 117.188 89 122.417V126.333H121V122.417C121 117.188 110.34 114.583 105 114.583ZM87 106.75V100.875H83V106.75H77V110.667H83V116.542H87V110.667H93V106.75M105 110.667C107.122 110.667 109.157 109.841 110.657 108.372C112.157 106.903 113 104.911 113 102.833C113 100.756 112.157 98.7634 110.657 97.2943C109.157 95.8253 107.122 95 105 95C102.878 95 100.843 95.8253 99.3431 97.2943C97.8429 98.7634 97 100.756 97 102.833C97 104.911 97.8429 106.903 99.3431 108.372C100.843 109.841 102.878 110.667 105 110.667Z" fill="#00A01D"/>
<path d="M179.56 128.88V137.04H189.16V140.76H179.56V149.28H190.36V153H175V125.16H190.36V128.88H179.56ZM207.097 130.6C208.83 130.6 210.377 130.96 211.737 131.68C213.123 132.4 214.203 133.467 214.977 134.88C215.75 136.293 216.137 138 216.137 140V153H211.617V140.68C211.617 138.707 211.123 137.2 210.137 136.16C209.15 135.093 207.803 134.56 206.097 134.56C204.39 134.56 203.03 135.093 202.017 136.16C201.03 137.2 200.537 138.707 200.537 140.68V153H195.977V130.96H200.537V133.48C201.283 132.573 202.23 131.867 203.377 131.36C204.55 130.853 205.79 130.6 207.097 130.6ZM226.513 134.16C227.18 133.04 228.06 132.173 229.153 131.56C230.273 130.92 231.593 130.6 233.113 130.6V135.32H231.953C230.166 135.32 228.806 135.773 227.873 136.68C226.966 137.587 226.513 139.16 226.513 141.4V153H221.953V130.96H226.513V134.16ZM246.865 153.36C244.785 153.36 242.905 152.893 241.225 151.96C239.545 151 238.225 149.667 237.265 147.96C236.305 146.227 235.825 144.227 235.825 141.96C235.825 139.72 236.318 137.733 237.305 136C238.291 134.267 239.638 132.933 241.345 132C243.051 131.067 244.958 130.6 247.065 130.6C249.171 130.6 251.078 131.067 252.785 132C254.491 132.933 255.838 134.267 256.825 136C257.811 137.733 258.305 139.72 258.305 141.96C258.305 144.2 257.798 146.187 256.785 147.92C255.771 149.653 254.385 151 252.625 151.96C250.891 152.893 248.971 153.36 246.865 153.36ZM246.865 149.4C248.038 149.4 249.131 149.12 250.145 148.56C251.185 148 252.025 147.16 252.665 146.04C253.305 144.92 253.625 143.56 253.625 141.96C253.625 140.36 253.318 139.013 252.705 137.92C252.091 136.8 251.278 135.96 250.265 135.4C249.251 134.84 248.158 134.56 246.985 134.56C245.811 134.56 244.718 134.84 243.705 135.4C242.718 135.96 241.931 136.8 241.345 137.92C240.758 139.013 240.465 140.36 240.465 141.96C240.465 144.333 241.065 146.173 242.265 147.48C243.491 148.76 245.025 149.4 246.865 149.4ZM267.373 123.4V153H262.813V123.4H267.373ZM277.919 123.4V153H273.359V123.4H277.919ZM304.106 141.44C304.106 142.267 304.053 143.013 303.946 143.68H287.106C287.24 145.44 287.893 146.853 289.066 147.92C290.24 148.987 291.68 149.52 293.386 149.52C295.84 149.52 297.573 148.493 298.586 146.44H303.506C302.84 148.467 301.626 150.133 299.866 151.44C298.133 152.72 295.973 153.36 293.386 153.36C291.28 153.36 289.386 152.893 287.706 151.96C286.053 151 284.746 149.667 283.786 147.96C282.853 146.227 282.386 144.227 282.386 141.96C282.386 139.693 282.84 137.707 283.746 136C284.68 134.267 285.973 132.933 287.626 132C289.306 131.067 291.226 130.6 293.386 130.6C295.466 130.6 297.32 131.053 298.946 131.96C300.573 132.867 301.84 134.147 302.746 135.8C303.653 137.427 304.106 139.307 304.106 141.44ZM299.346 140C299.32 138.32 298.72 136.973 297.546 135.96C296.373 134.947 294.92 134.44 293.186 134.44C291.613 134.44 290.266 134.947 289.146 135.96C288.026 136.947 287.36 138.293 287.146 140H299.346ZM307.074 141.88C307.074 139.667 307.527 137.707 308.434 136C309.367 134.293 310.62 132.973 312.194 132.04C313.794 131.08 315.567 130.6 317.514 130.6C318.954 130.6 320.367 130.92 321.754 131.56C323.167 132.173 324.287 133 325.114 134.04V123.4H329.714V153H325.114V149.68C324.367 150.747 323.327 151.627 321.994 152.32C320.687 153.013 319.18 153.36 317.474 153.36C315.554 153.36 313.794 152.88 312.194 151.92C310.62 150.933 309.367 149.573 308.434 147.84C307.527 146.08 307.074 144.093 307.074 141.88ZM325.114 141.96C325.114 140.44 324.794 139.12 324.154 138C323.54 136.88 322.727 136.027 321.714 135.44C320.7 134.853 319.607 134.56 318.434 134.56C317.26 134.56 316.167 134.853 315.154 135.44C314.14 136 313.314 136.84 312.674 137.96C312.06 139.053 311.754 140.36 311.754 141.88C311.754 143.4 312.06 144.733 312.674 145.88C313.314 147.027 314.14 147.907 315.154 148.52C316.194 149.107 317.287 149.4 318.434 149.4C319.607 149.4 320.7 149.107 321.714 148.52C322.727 147.933 323.54 147.08 324.154 145.96C324.794 144.813 325.114 143.48 325.114 141.96ZM350.654 149.32H360.054V153H346.094V125.2H350.654V149.32ZM384.067 141.44C384.067 142.267 384.014 143.013 383.907 143.68H367.067C367.201 145.44 367.854 146.853 369.027 147.92C370.201 148.987 371.641 149.52 373.347 149.52C375.801 149.52 377.534 148.493 378.547 146.44H383.467C382.801 148.467 381.587 150.133 379.827 151.44C378.094 152.72 375.934 153.36 373.347 153.36C371.241 153.36 369.347 152.893 367.667 151.96C366.014 151 364.707 149.667 363.747 147.96C362.814 146.227 362.347 144.227 362.347 141.96C362.347 139.693 362.801 137.707 363.707 136C364.641 134.267 365.934 132.933 367.587 132C369.267 131.067 371.187 130.6 373.347 130.6C375.427 130.6 377.281 131.053 378.907 131.96C380.534 132.867 381.801 134.147 382.707 135.8C383.614 137.427 384.067 139.307 384.067 141.44ZM379.307 140C379.281 138.32 378.681 136.973 377.507 135.96C376.334 134.947 374.881 134.44 373.147 134.44C371.574 134.44 370.227 134.947 369.107 135.96C367.987 136.947 367.321 138.293 367.107 140H379.307ZM387.035 141.88C387.035 139.667 387.488 137.707 388.395 136C389.328 134.293 390.581 132.973 392.155 132.04C393.755 131.08 395.515 130.6 397.435 130.6C399.168 130.6 400.675 130.947 401.955 131.64C403.261 132.307 404.301 133.147 405.075 134.16V130.96H409.675V153H405.075V149.72C404.301 150.76 403.248 151.627 401.915 152.32C400.581 153.013 399.061 153.36 397.355 153.36C395.461 153.36 393.728 152.88 392.155 151.92C390.581 150.933 389.328 149.573 388.395 147.84C387.488 146.08 387.035 144.093 387.035 141.88ZM405.075 141.96C405.075 140.44 404.755 139.12 404.115 138C403.501 136.88 402.688 136.027 401.675 135.44C400.661 134.853 399.568 134.56 398.395 134.56C397.221 134.56 396.128 134.853 395.115 135.44C394.101 136 393.275 136.84 392.635 137.96C392.021 139.053 391.715 140.36 391.715 141.88C391.715 143.4 392.021 144.733 392.635 145.88C393.275 147.027 394.101 147.907 395.115 148.52C396.155 149.107 397.248 149.4 398.395 149.4C399.568 149.4 400.661 149.107 401.675 148.52C402.688 147.933 403.501 147.08 404.115 145.96C404.755 144.813 405.075 143.48 405.075 141.96ZM420.224 134.16C420.891 133.04 421.771 132.173 422.864 131.56C423.984 130.92 425.304 130.6 426.824 130.6V135.32H425.664C423.877 135.32 422.517 135.773 421.584 136.68C420.677 137.587 420.224 139.16 420.224 141.4V153H415.664V130.96H420.224V134.16ZM442.136 130.6C443.869 130.6 445.416 130.96 446.776 131.68C448.162 132.4 449.242 133.467 450.016 134.88C450.789 136.293 451.176 138 451.176 140V153H446.656V140.68C446.656 138.707 446.162 137.2 445.176 136.16C444.189 135.093 442.842 134.56 441.136 134.56C439.429 134.56 438.069 135.093 437.056 136.16C436.069 137.2 435.576 138.707 435.576 140.68V153H431.016V130.96H435.576V133.48C436.322 132.573 437.269 131.867 438.416 131.36C439.589 130.853 440.829 130.6 442.136 130.6ZM477.192 141.44C477.192 142.267 477.139 143.013 477.032 143.68H460.192C460.326 145.44 460.979 146.853 462.152 147.92C463.326 148.987 464.766 149.52 466.472 149.52C468.926 149.52 470.659 148.493 471.672 146.44H476.592C475.926 148.467 474.712 150.133 472.952 151.44C471.219 152.72 469.059 153.36 466.472 153.36C464.366 153.36 462.472 152.893 460.792 151.96C459.139 151 457.832 149.667 456.872 147.96C455.939 146.227 455.472 144.227 455.472 141.96C455.472 139.693 455.926 137.707 456.832 136C457.766 134.267 459.059 132.933 460.712 132C462.392 131.067 464.312 130.6 466.472 130.6C468.552 130.6 470.406 131.053 472.032 131.96C473.659 132.867 474.926 134.147 475.832 135.8C476.739 137.427 477.192 139.307 477.192 141.44ZM472.432 140C472.406 138.32 471.806 136.973 470.632 135.96C469.459 134.947 468.006 134.44 466.272 134.44C464.699 134.44 463.352 134.947 462.232 135.96C461.112 136.947 460.446 138.293 460.232 140H472.432ZM486.24 134.16C486.906 133.04 487.786 132.173 488.88 131.56C490 130.92 491.32 130.6 492.84 130.6V135.32H491.68C489.893 135.32 488.533 135.773 487.6 136.68C486.693 137.587 486.24 139.16 486.24 141.4V153H481.68V130.96H486.24V134.16ZM505.031 153.36C503.298 153.36 501.738 153.053 500.351 152.44C498.991 151.8 497.911 150.947 497.111 149.88C496.311 148.787 495.885 147.573 495.831 146.24H500.551C500.631 147.173 501.071 147.96 501.871 148.6C502.698 149.213 503.725 149.52 504.951 149.52C506.231 149.52 507.218 149.28 507.911 148.8C508.631 148.293 508.991 147.653 508.991 146.88C508.991 146.053 508.591 145.44 507.791 145.04C507.018 144.64 505.778 144.2 504.071 143.72C502.418 143.267 501.071 142.827 500.031 142.4C498.991 141.973 498.085 141.32 497.311 140.44C496.565 139.56 496.191 138.4 496.191 136.96C496.191 135.787 496.538 134.72 497.231 133.76C497.925 132.773 498.911 132 500.191 131.44C501.498 130.88 502.991 130.6 504.671 130.6C507.178 130.6 509.191 131.24 510.711 132.52C512.258 133.773 513.085 135.493 513.191 137.68H508.631C508.551 136.693 508.151 135.907 507.431 135.32C506.711 134.733 505.738 134.44 504.511 134.44C503.311 134.44 502.391 134.667 501.751 135.12C501.111 135.573 500.791 136.173 500.791 136.92C500.791 137.507 501.005 138 501.431 138.4C501.858 138.8 502.378 139.12 502.991 139.36C503.605 139.573 504.511 139.853 505.711 140.2C507.311 140.627 508.618 141.067 509.631 141.52C510.671 141.947 511.565 142.587 512.311 143.44C513.058 144.293 513.445 145.427 513.471 146.84C513.471 148.093 513.125 149.213 512.431 150.2C511.738 151.187 510.751 151.96 509.471 152.52C508.218 153.08 506.738 153.36 505.031 153.36Z" fill="#B86907"/>
<path d="M174.7 71.5V65.26H187.18V109H180.28V71.5H174.7ZM196.577 86.56C196.577 79.64 197.737 74.24 200.057 70.36C202.417 66.44 206.457 64.48 212.177 64.48C217.897 64.48 221.917 66.44 224.237 70.36C226.597 74.24 227.777 79.64 227.777 86.56C227.777 93.56 226.597 99.04 224.237 103C221.917 106.92 217.897 108.88 212.177 108.88C206.457 108.88 202.417 106.92 200.057 103C197.737 99.04 196.577 93.56 196.577 86.56ZM221.057 86.56C221.057 83.32 220.837 80.58 220.397 78.34C219.997 76.1 219.157 74.28 217.877 72.88C216.597 71.44 214.697 70.72 212.177 70.72C209.657 70.72 207.757 71.44 206.477 72.88C205.197 74.28 204.337 76.1 203.897 78.34C203.497 80.58 203.297 83.32 203.297 86.56C203.297 89.92 203.497 92.74 203.897 95.02C204.297 97.3 205.137 99.14 206.417 100.54C207.737 101.94 209.657 102.64 212.177 102.64C214.697 102.64 216.597 101.94 217.877 100.54C219.197 99.14 220.057 97.3 220.457 95.02C220.857 92.74 221.057 89.92 221.057 86.56ZM235.014 86.56C235.014 79.64 236.174 74.24 238.494 70.36C240.854 66.44 244.894 64.48 250.614 64.48C256.334 64.48 260.354 66.44 262.674 70.36C265.034 74.24 266.214 79.64 266.214 86.56C266.214 93.56 265.034 99.04 262.674 103C260.354 106.92 256.334 108.88 250.614 108.88C244.894 108.88 240.854 106.92 238.494 103C236.174 99.04 235.014 93.56 235.014 86.56ZM259.494 86.56C259.494 83.32 259.274 80.58 258.834 78.34C258.434 76.1 257.594 74.28 256.314 72.88C255.034 71.44 253.134 70.72 250.614 70.72C248.094 70.72 246.194 71.44 244.914 72.88C243.634 74.28 242.774 76.1 242.334 78.34C241.934 80.58 241.734 83.32 241.734 86.56C241.734 89.92 241.934 92.74 242.334 95.02C242.734 97.3 243.574 99.14 244.854 100.54C246.174 101.94 248.094 102.64 250.614 102.64C253.134 102.64 255.034 101.94 256.314 100.54C257.634 99.14 258.494 97.3 258.894 95.02C259.294 92.74 259.494 89.92 259.494 86.56ZM273.452 86.56C273.452 79.64 274.612 74.24 276.932 70.36C279.292 66.44 283.332 64.48 289.052 64.48C294.772 64.48 298.792 66.44 301.112 70.36C303.472 74.24 304.652 79.64 304.652 86.56C304.652 93.56 303.472 99.04 301.112 103C298.792 106.92 294.772 108.88 289.052 108.88C283.332 108.88 279.292 106.92 276.932 103C274.612 99.04 273.452 93.56 273.452 86.56ZM297.932 86.56C297.932 83.32 297.712 80.58 297.272 78.34C296.872 76.1 296.032 74.28 294.752 72.88C293.472 71.44 291.572 70.72 289.052 70.72C286.532 70.72 284.632 71.44 283.352 72.88C282.072 74.28 281.212 76.1 280.772 78.34C280.372 80.58 280.172 83.32 280.172 86.56C280.172 89.92 280.372 92.74 280.772 95.02C281.172 97.3 282.012 99.14 283.292 100.54C284.612 101.94 286.532 102.64 289.052 102.64C291.572 102.64 293.472 101.94 294.752 100.54C296.072 99.14 296.932 97.3 297.332 95.02C297.732 92.74 297.932 89.92 297.932 86.56ZM335.769 109L319.629 90.34V109H312.789V67.3H319.629V86.32L335.829 67.3H344.409L326.289 88.18L344.709 109H335.769ZM398.564 90.22H386.444V102.64H380.084V90.22H367.964V84.46H380.084V72.04H386.444V84.46H398.564V90.22Z" fill="#00A01D"/>
</svg>
